<?xml version="1.0" standalone="no"?>
<!DOCTYPE svg PUBLIC "-//W3C//DTD SVG 20010904//EN"
 "http://www.w3.org/TR/2001/REC-SVG-20010904/DTD/svg10.dtd">
<svg version="1.0" xmlns="http://www.w3.org/2000/svg"
 width="322.000000pt" height="322.000000pt" viewBox="0 0 322.000000 322.000000"
 preserveAspectRatio="xMidYMid meet">
<metadata>
Created by potrace 1.11, written by Peter Selinger 2001-2013
</metadata>
<g transform="translate(0.000000,322.000000) scale(0.100000,-0.100000)"
fill="#000000" stroke="none">
<path d="M1529 3216 c-2 -2 -40 -6 -84 -9 -411 -30 -818 -253 -1081 -592 -161
-207 -280 -489 -309 -730 -4 -27 -8 -58 -11 -67 -12 -42 -4 -320 12 -402 2
-11 6 -37 9 -57 19 -126 99 -341 177 -479 348 -609 1050 -919 1730 -765 107
24 266 79 353 122 546 272 887 826 880 1428 -3 206 -17 299 -75 479 -186 580
-715 1007 -1315 1062 -33 3 -66 7 -72 9 -7 3 -13 0 -13 -5 0 -6 12 -10 28 -11
78 -2 273 -51 386 -96 271 -107 497 -280 669 -509 153 -204 261 -466 293 -714
9 -69 10 -287 2 -360 -24 -207 -103 -437 -211 -615 -44 -71 -175 -239 -199
-254 -13 -8 -42 2 -140 50 -116 58 -332 139 -370 139 -22 0 -21 -5 -2 61 9 30
27 101 39 159 13 58 32 136 44 175 24 79 25 124 7 175 -15 41 -7 80 43 202 23
56 31 92 31 137 0 77 -14 80 -17 3 -1 -41 -13 -88 -45 -169 l-44 -111 -26 46
c-15 26 -36 57 -47 69 -27 28 -26 30 7 38 27 5 59 41 48 53 -3 3 -6 0 -6 -6 0
-15 -31 -31 -77 -38 -44 -7 -56 -14 -25 -14 23 0 27 -7 14 -28 -12 -18 -35 -7
-61 28 -26 35 -55 38 -109 11 -20 -10 -74 -29 -119 -41 -53 -14 -99 -34 -125
-54 -24 -18 -51 -36 -62 -39 -35 -13 -110 50 -201 168 -64 84 -77 132 -77 290
0 99 5 136 29 210 17 56 79 183 119 247 45 70 56 108 55 184 -1 87 16 114 93
150 107 50 227 22 401 -95 106 -70 141 -85 228 -97 48 -7 53 -13 86 -95 8 -20
10 -14 10 32 1 35 6 61 15 68 17 14 36 87 36 139 0 33 -5 42 -42 69 -109 80
-135 102 -151 126 -23 36 -51 48 -197 92 -155 46 -291 75 -351 75 -94 0 -212
-56 -304 -147 -22 -21 -55 -45 -73 -52 -43 -18 -109 -83 -159 -156 -51 -76
-59 -99 -62 -186 -1 -14 -14 -43 -31 -64 -35 -45 -39 -87 -10 -130 26 -39 25
-41 -9 -61 -73 -43 -99 -186 -52 -284 12 -25 19 -36 15 -25 -13 44 -21 120
-18 166 4 58 21 93 63 133 26 25 35 28 68 23 66 -11 94 -66 103 -207 l2 -25 8
27 c10 33 2 94 -16 131 -18 33 -4 35 32 4 23 -20 26 -30 25 -80 0 -32 -2 -61
-5 -65 -2 -4 -7 -42 -11 -84 -3 -42 -7 -85 -9 -95 -2 -10 -6 -40 -10 -68 -3
-27 -9 -72 -13 -100 -10 -68 -10 -313 0 -403 14 -125 45 -185 159 -308 114
-121 237 -198 357 -224 49 -10 59 -15 50 -26 -10 -12 -174 -124 -224 -153 -17
-10 -16 -10 10 -5 54 12 149 68 200 120 54 53 48 52 145 39 19 -2 47 -4 63 -5
27 0 27 0 21 -52 -6 -50 -42 -199 -58 -243 -7 -18 -6 -18 12 3 31 34 62 141
65 218 l2 69 45 22 c25 12 52 33 60 47 l15 25 85 -35 c140 -57 240 -100 333
-143 l88 -41 -68 -60 c-37 -33 -104 -84 -148 -114 -83 -57 -243 -142 -251
-134 -2 3 -6 63 -9 134 -7 208 -23 231 -24 34 0 -91 0 -170 -1 -177 0 -16
-167 -69 -283 -90 -98 -18 -357 -24 -459 -11 -90 12 -266 58 -343 90 -38 16
-77 32 -87 35 -11 3 -33 53 -64 145 -77 224 -92 220 -26 -7 16 -55 28 -102 26
-103 -4 -6 -94 49 -183 112 -85 60 -242 208 -299 282 l-31 41 82 38 c211 97
250 120 329 192 77 70 108 88 108 60 0 -7 -16 -51 -35 -97 -56 -136 -47 -187
65 -381 70 -122 202 -329 209 -329 4 0 20 14 37 31 l29 31 -28 -13 c-26 -12
-30 -11 -47 11 -11 14 -28 41 -38 60 -11 19 -50 85 -87 145 -131 215 -165 300
-144 364 66 213 119 327 169 369 13 11 11 11 -8 2 -26 -13 -96 -115 -106 -154
-4 -15 -11 -23 -19 -20 -23 8 -65 -13 -129 -67 -74 -61 -114 -87 -194 -122
-34 -15 -95 -42 -136 -61 l-75 -34 -34 52 c-81 123 -181 361 -205 487 -29 161
-33 205 -30 359 2 91 7 176 10 190 3 14 11 52 17 84 6 33 25 105 44 161 171
522 604 908 1145 1020 63 14 134 25 157 27 23 1 40 5 37 10 -6 9 -9 10 -15 4z
m526 -1711 c30 -14 63 -25 74 -25 30 0 39 -27 36 -100 -2 -72 -15 -104 -45
-120 -26 -14 -36 -7 -43 29 -5 26 -11 29 -59 36 -29 4 -61 8 -71 10 -12 2 -25
-7 -35 -26 -20 -35 -23 -35 -90 -4 -58 27 -72 50 -72 119 0 50 5 53 125 84
100 26 121 25 180 -3z"/>
<path d="M1810 1470 c14 -4 54 -10 88 -13 34 -4 70 -11 80 -16 11 -6 47 -15
82 -20 34 -6 70 -16 79 -23 10 -7 4 -1 -11 15 -16 15 -36 27 -46 28 -26 1 -42
5 -94 23 -30 10 -77 15 -125 14 -50 0 -69 -3 -53 -8z"/>
<path d="M1790 1446 c41 -45 88 -70 175 -92 11 -3 49 -8 85 -11 50 -4 70 -1
85 11 19 16 19 16 -5 7 -48 -17 -236 28 -301 72 -58 39 -65 41 -39 13z"/>
<path d="M1760 2572 c-14 -2 -29 -7 -33 -11 -4 -5 13 -5 38 -1 76 12 257 -8
331 -37 7 -3 14 -3 14 0 0 6 -78 33 -121 43 -31 7 -196 12 -229 6z"/>
<path d="M1780 2537 c3 -2 43 -7 90 -9 94 -6 152 -26 260 -91 36 -22 76 -46
90 -55 l25 -14 -25 21 c-36 32 -121 86 -182 117 -45 23 -69 28 -158 32 -58 2
-103 2 -100 -1z"/>
<path d="M1850 2494 c113 -21 211 -61 269 -109 17 -15 29 -21 26 -13 -10 22
-87 75 -144 97 -29 12 -81 23 -115 26 -33 2 -50 2 -36 -1z"/>
<path d="M2396 2410 c5 -14 9 -86 9 -162 0 -75 3 -139 6 -143 4 -3 7 7 7 22 0
15 3 64 6 108 5 81 -8 172 -26 190 -7 7 -7 2 -2 -15z"/>
<path d="M1762 2385 c4 -5 -12 -20 -36 -36 -40 -25 -96 -91 -96 -112 0 -4 12
4 28 18 87 83 205 89 324 16 77 -48 98 -48 105 -2 2 17 -36 75 -44 67 -3 -3
-19 4 -35 15 -16 12 -32 19 -35 15 -3 -3 -15 0 -27 6 -23 13 -195 24 -184 13z"/>
<path d="M1094 2248 c-38 -18 -75 -127 -63 -188 3 -19 7 -26 8 -14 5 78 71
196 92 163 5 -8 9 -29 9 -46 0 -22 5 -33 14 -33 23 0 26 14 13 60 -15 51 -42
73 -73 58z"/>
<path d="M1748 2230 c-20 -11 -39 -24 -42 -28 -3 -5 16 2 42 15 78 40 160 14
196 -62 9 -19 19 -35 22 -35 6 0 6 -1 -21 53 -22 42 -82 77 -131 77 -16 -1
-46 -10 -66 -20z"/>
<path d="M1805 2205 c22 -7 47 -14 56 -14 9 -1 28 -13 43 -27 26 -27 36 -22
13 7 -19 25 -50 38 -103 43 l-49 5 40 -14z"/>
<path d="M1738 2171 c-54 -19 -70 -31 -40 -31 11 0 24 -5 28 -11 12 -20 73
-39 143 -45 l69 -6 -1 25 c-1 14 -4 25 -7 24 -3 -1 -17 11 -32 26 -15 15 -35
27 -45 28 -10 1 -29 2 -43 3 -14 2 -46 -4 -72 -13z m12 -37 c0 -8 -4 -12 -10
-9 -5 3 -10 10 -10 16 0 5 5 9 10 9 6 0 10 -7 10 -16z m66 -10 c-4 -9 -9 -15
-11 -12 -3 3 -3 13 1 22 4 9 9 15 11 12 3 -3 3 -13 -1 -22z m74 4 c26 -28 25
-39 -2 -34 -13 3 -31 5 -41 5 -12 1 -15 5 -10 14 4 6 8 15 9 20 3 15 4 17 14
17 5 0 18 -10 30 -22z"/>
<path d="M2057 2112 c-3 -27 -14 -74 -25 -105 -10 -32 -17 -57 -16 -57 14 0
48 96 52 147 6 74 -3 85 -11 15z"/>
<path d="M2251 2118 c-11 -29 10 -54 66 -80 56 -25 73 -43 67 -73 -6 -35 1
-31 21 11 16 35 16 36 -11 75 -14 21 -34 39 -43 39 -13 0 -13 2 -2 9 10 7 8
12 -10 25 -35 24 -78 21 -88 -6z"/>
<path d="M2176 2114 c-20 -19 -20 -56 -1 -120 12 -42 53 -224 59 -261 1 -7 6
-16 10 -20 11 -10 0 100 -14 147 -16 56 -14 63 15 44 14 -9 28 -14 31 -11 3 2
-11 15 -30 27 -64 39 -39 46 37 10 22 -11 22 -11 0 6 -20 14 -21 18 -7 31 12
12 18 13 29 3 8 -7 15 -18 15 -24 0 -7 7 -21 15 -32 14 -18 14 -17 9 16 -4 23
-18 46 -42 68 -31 28 -43 33 -77 30 -40 -3 -40 -2 -43 35 -2 21 2 45 9 53 16
19 4 18 -15 -2z m44 -120 c0 -8 -5 -12 -10 -9 -6 4 -8 11 -5 16 9 14 15 11 15
-7z"/>
<path d="M1155 2079 c-11 -6 -30 -24 -42 -41 -25 -36 -18 -63 22 -78 13 -5 31
-23 40 -40 16 -30 45 -41 45 -17 0 8 -9 22 -19 31 -16 15 -19 27 -14 87 5 71
2 75 -32 58z"/>
<path d="M2407 2070 c3 -11 7 -20 9 -20 2 0 4 9 4 20 0 11 -4 20 -9 20 -5 0
-7 -9 -4 -20z"/>
<path d="M1729 2066 c30 -35 138 -44 181 -15 11 7 9 8 -10 4 -63 -13 -101 -11
-141 7 -31 13 -39 14 -30 4z"/>
<path d="M1040 1968 c0 -6 11 -26 25 -44 14 -18 25 -41 25 -51 0 -14 -8 -10
-31 17 l-30 35 20 -40 c26 -54 67 -91 120 -106 26 -8 46 -21 51 -33 6 -15 9
-16 9 -5 1 20 -24 43 -69 62 -61 27 -72 41 -59 71 11 23 8 29 -25 66 -20 22
-36 35 -36 28z"/>
<path d="M1926 1778 c-22 -30 -20 -81 2 -101 23 -21 60 -22 82 -2 12 11 24 12
48 6 35 -11 44 2 13 19 -32 16 -69 12 -81 -10 -9 -17 -14 -18 -35 -8 -14 6
-26 18 -27 27 -3 31 4 66 14 78 6 7 8 13 5 13 -3 0 -13 -10 -21 -22z"/>
<path d="M1134 1659 c0 -85 -7 -169 -24 -267 -22 -133 -26 -145 -52 -163 -81
-58 -50 -192 77 -331 73 -80 260 -226 380 -297 53 -32 40 -19 -80 74 -193 151
-292 245 -354 337 l-34 50 26 77 c27 78 46 147 54 191 2 14 10 59 17 100 15
82 14 289 -1 329 -7 17 -9 -13 -9 -100z m-69 -505 c-12 -44 -20 -61 -26 -52
-19 30 -4 101 25 120 19 12 19 -1 1 -68z"/>
</g>
</svg>
