<?xml version="1.0" encoding="utf-8"?>
<!-- Generator: Adobe Illustrator 16.0.0, SVG Export Plug-In . SVG Version: 6.00 Build 0)  -->
<!DOCTYPE svg PUBLIC "-//W3C//DTD SVG 1.1//EN" "http://www.w3.org/Graphics/SVG/1.1/DTD/svg11.dtd">
<svg version="1.1" xmlns="http://www.w3.org/2000/svg" xmlns:xlink="http://www.w3.org/1999/xlink" x="0px" y="0px" width="1400px"
	 height="980px" viewBox="0 0 1400 980" enable-background="new 0 0 1400 980" xml:space="preserve">
<g id="BACKGROUND">
	<rect x="-0.5" y="0.5" fill="#FFFFFF" stroke="#000000" stroke-miterlimit="10" width="1400" height="980"/>
</g>
<g id="OBJECT">
	<g>
		<defs>
			<rect id="SVGID_1_" x="-1" y="1" width="1400" height="980"/>
		</defs>
		<clipPath id="SVGID_2_">
			<use xlink:href="#SVGID_1_"  overflow="visible"/>
		</clipPath>
		<g clip-path="url(#SVGID_2_)">
			<g>
				<g>
					<polygon fill="#FD4631" points="917,980 917,792 961,795 971,980 					"/>
					
						<polygon fill="none" stroke="#020202" stroke-width="2" stroke-linecap="round" stroke-linejoin="round" stroke-miterlimit="10" points="
						534,138 515,942 1358,942 1327.919,130.81 					"/>
					<polygon fill="#F4EAE9" points="521,129 502,933 1345,933 1314.919,121.81 					"/>
					<polyline fill="#FD4631" points="905,97 905,49 934,49 942.5,97 905,97 					"/>
					<polygon fill="#020202" points="1348,141 462.961,146.62 475,97 1348,97 					"/>
				</g>
				<rect x="571.841" y="843.835" fill="none" width="195.035" height="72.329"/>
				<text transform="matrix(1 0 0 1 571.8408 855.1943)"><tspan x="0" y="0" font-family="'Rubik-Light'" font-size="16">Lorem Ipsum is simply </tspan><tspan x="0" y="19.2" font-family="'Rubik-Light'" font-size="16">dummy text of the printing </tspan><tspan x="0" y="38.4" font-family="'Rubik-Light'" font-size="16">and typesetting industry. ,</tspan></text>
				<g>
					<path fill="#F1BA22" d="M817,247.006c0,0,10.773-16.784,21.026-16.135c10.254,0.649,27.638,34.392,45.331,33.107
						c17.697-1.285,24.803-50.073,44.882-51.099s35.422,10.933,49.947,7.516c14.525-3.418,27.813-26.49,72.813-15.382v85.443
						l-234,0.854V247.006z"/>
					
						<path fill="none" stroke="#020202" stroke-width="2" stroke-linecap="round" stroke-linejoin="round" stroke-miterlimit="10" d="
						M817.187,246.966c0,0,10.681-16.764,20.934-16.115c10.253,0.649,27.59,34.403,45.285,33.118
						c17.695-1.285,24.778-50.067,44.857-51.094s35.459,10.936,49.984,7.518c14.525-3.418,26.937-26.487,72.851-15.38"/>
					
						<polyline fill="none" stroke="#020202" stroke-width="2" stroke-linecap="round" stroke-linejoin="round" stroke-miterlimit="10" points="
						1055,298 802,298 802,205 					"/>
					<path fill="#F2A799" d="M1051.098,222.101c0,0,0-4.062-19.109-8.544c-25.055-5.877-45.197,28.196-66.578,26.487
						c-21.381-1.709-33.303,20.506-52.541,23.519c-19.239,3.012-38.863-19.247-58.515-17.494
						c-19.652,1.752-37.168,34.988-37.168,34.988l-0.427,10.253l234.113-0.854L1051.098,222.101z"/>
					<path fill="#FD4631" d="M1051.098,233.009c-21.136-1.055-33.547,48.048-45.509,48.048s-22.216-24.779-35.032-25
						c-12.816-0.221-18.797,19.019-36.415,25c-17.617,5.981-32.794,0.854-61.872-4.458c-29.079-5.312-55.083,10.358-55.083,10.358
						l-0.427,4.352l234.113-0.854L1051.098,233.009z"/>
					
						<circle fill="none" stroke="#020202" stroke-width="2" stroke-linecap="round" stroke-linejoin="round" stroke-miterlimit="10" cx="791.981" cy="199.886" r="5.126"/>
					
						<path fill="none" stroke="#020202" stroke-width="2" stroke-linecap="round" stroke-linejoin="round" stroke-miterlimit="10" d="
						M817.187,286.958c0,0,26.004-15.67,55.083-10.358c29.078,5.312,44.255,10.438,61.872,4.458
						c17.618-5.981,23.599-25.221,36.415-25c12.816,0.221,23.07,25,35.032,25s24.373-49.103,45.509-48.048"/>
					
						<path fill="none" stroke="#020202" stroke-width="2" stroke-linecap="round" stroke-linejoin="round" stroke-miterlimit="10" d="
						M817.187,281.057c0,0,17.516-33.236,37.168-34.988c19.651-1.752,39.275,20.506,58.515,17.494
						c19.238-3.012,31.16-25.228,52.541-23.519c21.381,1.708,41.523-32.364,66.578-26.487c19.109,4.482,19.109,8.544,19.109,8.544"
						/>
					<g>
						<g>
							
								<line fill="none" stroke="#020202" stroke-width="2" stroke-linecap="round" stroke-linejoin="round" x1="1016" y1="195" x2="1016" y2="201"/>
							
								<line fill="none" stroke="#020202" stroke-width="2" stroke-linecap="round" stroke-linejoin="round" stroke-dasharray="13,13" x1="1016" y1="214" x2="1016" y2="286"/>
							
								<line fill="none" stroke="#020202" stroke-width="2" stroke-linecap="round" stroke-linejoin="round" x1="1016" y1="292" x2="1016" y2="298"/>
						</g>
					</g>
					<g>
						<g>
							
								<line fill="none" stroke="#020202" stroke-width="2" stroke-linecap="round" stroke-linejoin="round" x1="867" y1="196" x2="867" y2="202"/>
							
								<line fill="none" stroke="#020202" stroke-width="2" stroke-linecap="round" stroke-linejoin="round" stroke-dasharray="13,13" x1="867" y1="215" x2="867" y2="286"/>
							
								<line fill="none" stroke="#020202" stroke-width="2" stroke-linecap="round" stroke-linejoin="round" x1="867" y1="292" x2="867" y2="298"/>
						</g>
					</g>
					<g>
						<g>
							
								<line fill="none" stroke="#020202" stroke-width="2" stroke-linecap="round" stroke-linejoin="round" x1="937" y1="196" x2="937" y2="202"/>
							
								<line fill="none" stroke="#020202" stroke-width="2" stroke-linecap="round" stroke-linejoin="round" stroke-dasharray="13,13" x1="937" y1="215" x2="937" y2="286"/>
							
								<line fill="none" stroke="#020202" stroke-width="2" stroke-linecap="round" stroke-linejoin="round" x1="937" y1="292" x2="937" y2="298"/>
						</g>
					</g>
				</g>
				<g>
					
						<text transform="matrix(1 0 0 1 703.9658 570.3926)" fill="#020202" font-family="'Rubik-Light'" font-size="22.2767" letter-spacing="1">A</text>
					<g>
						<path fill="#F6DC35" d="M823.027,785.41c0,12.521-58.026,22.673-112.335,22.673s-98.334-10.151-98.334-22.673
							s44.025-22.672,98.334-22.672S823.027,772.889,823.027,785.41z"/>
						
							<polyline fill="none" stroke="#020202" stroke-width="2" stroke-linecap="round" stroke-linejoin="round" stroke-miterlimit="10" stroke-dasharray="12" points="
							711,589 711,785.651 815.299,785.424 						"/>
						
							<polyline fill="none" stroke="#020202" stroke-width="2" stroke-linecap="round" stroke-linejoin="round" stroke-miterlimit="10" points="
							612.358,785.41 710.631,589.191 823.027,785.41 						"/>
					</g>
					<g>
						<path fill="#F6DC35" d="M823.027,785.41c0,12.521-58.026,22.673-112.335,22.673s-98.334-10.151-98.334-22.673
							s44.025-22.672,98.334-22.672S823.027,772.889,823.027,785.41z"/>
						
							<polyline fill="none" stroke="#020202" stroke-width="2" stroke-linecap="round" stroke-linejoin="round" stroke-miterlimit="10" stroke-dasharray="12" points="
							711,589 711,785.651 815.299,785.424 						"/>
						
							<polyline fill="none" stroke="#020202" stroke-width="2" stroke-linecap="round" stroke-linejoin="round" stroke-miterlimit="10" points="
							612.358,785.41 710.631,589.191 823.027,785.41 						"/>
					</g>
				</g>
				<g>
					
						<text transform="matrix(1 0 0 1 1058.6562 384.4814)" fill="#020202" font-family="'Rubik-Light'" font-size="20.5589" letter-spacing="1">B</text>
					<g>
						<polygon fill="#8BD6E8" points="879,384 1053,373 1043,549 879,549 						"/>
						
							<rect x="798" y="421" fill="none" stroke="#020202" stroke-width="2" stroke-linecap="round" stroke-linejoin="round" stroke-miterlimit="10" width="163" height="165"/>
						
							<polyline fill="none" stroke="#020202" stroke-width="2" stroke-linecap="round" stroke-linejoin="round" stroke-miterlimit="10" stroke-dasharray="12" points="
							1043,549 879,549 879,384 						"/>
						
							<line fill="none" stroke="#020202" stroke-width="2" stroke-linecap="round" stroke-linejoin="round" stroke-miterlimit="10" x1="797.527" y1="421.398" x2="879.664" y2="384.482"/>
						
							<path fill="none" stroke="#020202" stroke-width="2" stroke-linecap="round" stroke-linejoin="round" stroke-miterlimit="10" d="
							M960.879,585.672"/>
						
							<polyline fill="none" stroke="#020202" stroke-width="2" stroke-linecap="round" stroke-linejoin="round" stroke-miterlimit="10" points="
							879,384 1053,373 1043,548.757 960.539,585.432 						"/>
						
							<line fill="none" stroke="#020202" stroke-width="2" stroke-linecap="round" stroke-linejoin="round" stroke-miterlimit="10" stroke-dasharray="12" x1="797.527" y1="585.672" x2="879.664" y2="548.757"/>
						
							<line fill="none" stroke="#020202" stroke-width="2" stroke-linecap="round" stroke-linejoin="round" stroke-miterlimit="10" x1="960.879" y1="421.398" x2="1053.017" y2="373.482"/>
					</g>
				</g>
				<g>
					<circle fill="#F6DC35" cx="1107.99" cy="757.365" r="67.072"/>
					
						<circle fill="none" stroke="#020202" stroke-width="2" stroke-linecap="round" stroke-linejoin="round" stroke-miterlimit="10" cx="988.498" cy="758.705" r="88.118"/>
					
						<circle fill="none" stroke="#020202" stroke-width="2" stroke-linecap="round" stroke-linejoin="round" stroke-miterlimit="10" cx="1069.116" cy="836.052" r="63.948"/>
					
						<text transform="matrix(1 0 0 1 1100.4531 758.7061)" fill="#020202" font-family="'Rubik-Light'" font-size="22.2767" letter-spacing="1">20</text>
					
						<text transform="matrix(1 0 0 1 961.2314 767.0361)" fill="#020202" font-family="'Rubik-Light'" font-size="41.0848" letter-spacing="2">50</text>
					
						<line fill="none" stroke="#020202" stroke-width="2" stroke-linecap="round" stroke-linejoin="round" stroke-miterlimit="10" stroke-dasharray="12" x1="1069.115" y1="836.052" x2="1155.562" y2="900"/>
				</g>
				
					<text transform="matrix(1 0 0 1 1136.918 555.666)" fill="#020202" font-family="'Rubik-Light'" font-size="30.3267" letter-spacing="1">2x + 3y =</text>
				
					<text transform="matrix(1 0 0 1 1136.918 612)" fill="#020202" font-family="'Rubik-Light'" font-size="30.3267" letter-spacing="1">x + 2y</text>
				
					<polyline fill="none" stroke="#020202" stroke-width="2" stroke-linecap="round" stroke-linejoin="round" stroke-miterlimit="10" points="
					1101.318,609.896 1116,623 1116,579 1280,579 				"/>
				<g>
					<g>
						<polygon fill="#8BD6E8" points="568,339 772,339 612.594,184 						"/>
						<polygon fill="#FD4631" points="772,339 612.594,184 681.042,339 						"/>
						
							<line fill="none" stroke="#020202" stroke-width="2" stroke-linecap="round" stroke-linejoin="round" stroke-miterlimit="10" x1="568" y1="356" x2="772" y2="356"/>
						
							<line fill="none" stroke="#020202" stroke-width="2" stroke-linecap="round" stroke-linejoin="round" stroke-miterlimit="10" x1="772" y1="348" x2="772" y2="363"/>
						
							<line fill="none" stroke="#020202" stroke-width="2" stroke-linecap="round" stroke-linejoin="round" stroke-miterlimit="10" x1="566" y1="348" x2="566" y2="363"/>
						
							<line fill="none" stroke="#020202" stroke-width="2" stroke-linecap="round" stroke-linejoin="round" stroke-miterlimit="10" stroke-dasharray="12" x1="612.594" y1="184" x2="621.593" y2="339"/>
					</g>
					
						<text transform="matrix(1 0 0 1 640.3584 179.001)" fill="#020202" font-family="'Rubik-Light'" font-size="21.4881" letter-spacing="1">C</text>
				</g>
				
					<polyline fill="none" stroke="#020202" stroke-width="2" stroke-linecap="round" stroke-linejoin="round" stroke-miterlimit="10" points="
					1106,200 1106,434 1291,434 				"/>
				<polygon fill="#FD4631" points="1129,420 1145,420 1145,349.586 1129,349.364 				"/>
				<polygon fill="#FD4631" points="1160,420 1176,420 1176,365.591 1160,365.419 				"/>
				<polygon fill="#FFFFFF" stroke="#000000" stroke-miterlimit="10" points="1190.5,420.5 1206.5,420.5 1206.5,373.965 
					1190.5,373.819 				"/>
				<polygon fill="#8BD6E8" points="1222,420 1238,420 1238,332.451 1222,332.175 				"/>
				<polygon fill="#F6DC35" points="1253,420 1269,420 1269,381.016 1253,380.892 				"/>
				
					<polygon fill="none" stroke="#020202" stroke-width="2" stroke-linecap="round" stroke-linejoin="round" stroke-miterlimit="10" points="
					1129,420 1145,420 1145,262 1129,261.5 				"/>
				
					<polygon fill="none" stroke="#020202" stroke-width="2" stroke-linecap="round" stroke-linejoin="round" stroke-miterlimit="10" points="
					1160,420 1176,420 1176,297.913 1160,297.526 				"/>
				
					<polygon fill="none" stroke="#020202" stroke-width="2" stroke-linecap="round" stroke-linejoin="round" stroke-miterlimit="10" points="
					1191,420 1207,420 1207,316.704 1191,316.375 				"/>
				
					<polygon fill="none" stroke="#020202" stroke-width="2" stroke-linecap="round" stroke-linejoin="round" stroke-miterlimit="10" points="
					1222,420 1238,420 1238,223.551 1222,222.93 				"/>
				
					<polygon fill="none" stroke="#020202" stroke-width="2" stroke-linecap="round" stroke-linejoin="round" stroke-miterlimit="10" points="
					1253,420 1269,420 1269,332.523 1253,332.245 				"/>
			</g>
			<g>
				
					<path fill="none" stroke="#020202" stroke-width="2" stroke-linecap="round" stroke-linejoin="round" stroke-miterlimit="10" d="
					M69.5,509.5c1.314,14.391-20.783,15.813-26.863,5.498c-2.692-4.567-2.576-10.18-5.502-14.496
					c-2.754-4.066-7.236-6.593-9.538-11.365c-1.986-4.121-2.044-9.336-2.985-13.76c-0.896-4.207-2.484-9.041-2.637-13.377
					c-0.133-3.779,0.151-8.652,4.525-9.51c5.142-1.008,7.166,4.542,10.402,7.034c6.486,4.995,11.951,0.948,15.723,9.865
					C55.314,475.75,59.432,481.766,65,486"/>
				
					<path fill="none" stroke="#020202" stroke-width="2" stroke-linecap="round" stroke-linejoin="round" stroke-miterlimit="10" d="
					M102.5,480c0.003-6.146-0.34-11.027-3.124-16.487c-2.781-5.456-5.963-9.907-6.876-16.013c-0.677-4.521-1.061-8.874-4.961-11.814
					c-3.471-2.617-9.877-3.668-12.331,0.735c-1.854,3.329,0.313,8.882-0.471,12.588c-1.309,6.184-6.806,10.873-6.737,17.479
					c0.039,3.719,1.828,7.379,1.537,11c-0.29,3.613-2.527,6.611-3.035,10.002C63.986,504.293,75.156,515.24,91,510.5"/>
				
					<path fill="none" stroke="#020202" stroke-width="2" stroke-linecap="round" stroke-linejoin="round" stroke-miterlimit="10" d="
					M94,505.5c-0.896,9.531,10.717,17.733,18.889,14.377c8.204-3.369,14.575-10.989,23.111-14.379
					c4.596-1.825,6.77-4.117,10.062-7.6c3.918-4.144,9.938-6.918,12.324-12.313c1.522-3.44,1.627-9.699-0.514-13.085
					c-2.853-4.511-7.504-2.729-11.873-1.891c-6.887,1.323-12.99,0.199-19.875-0.121c-8.432-0.392-10.73,2.961-16.613,7.876
					c-3.876,3.238-10.42,6.472-13.398,10.747c-3.037,4.356-2.613,10.18-2.613,15.389"/>
				
					<path fill="none" stroke="#020202" stroke-width="2" stroke-linecap="round" stroke-linejoin="round" stroke-miterlimit="10" d="
					M86.5,543c0,0,10.5-37.994,35-49.997"/>
				
					<path fill="none" stroke="#020202" stroke-width="2" stroke-linecap="round" stroke-linejoin="round" stroke-miterlimit="10" d="
					M81.5,465.294c0,0-5.5,56.706-2,77.706"/>
				
					<path fill="none" stroke="#020202" stroke-width="2" stroke-linecap="round" stroke-linejoin="round" stroke-miterlimit="10" d="
					M41.5,479c0,0,28,31,28.5,64"/>
				
					<rect x="-15" y="630" fill="none" stroke="#020202" stroke-width="2" stroke-linecap="round" stroke-linejoin="round" stroke-miterlimit="10" width="416" height="369"/>
				
					<rect x="-15" y="696" fill="none" stroke="#020202" stroke-width="2" stroke-linecap="round" stroke-linejoin="round" stroke-miterlimit="10" width="416" height="303"/>
				<path fill="#F4EAE9" d="M57,543h41c0,0,29.645,119-19.678,118S57,543,57,543z"/>
				
					<line fill="none" stroke="#020202" stroke-width="2" stroke-linecap="round" stroke-linejoin="round" stroke-miterlimit="10" x1="56" y1="550" x2="100" y2="550"/>
			</g>
			<g>
				<path fill="#020202" d="M332.5,426.5c0,0,22-48-11-55.5s-92-2.5-92.5,44.5s-30.904,71.428-19.5,97
					c16.5,37,96.049,24.933,130.184-3.497C362.5,490,355,471,332.5,426.5z"/>
				<path fill="#EFC6BB" d="M562,501.5c0,0,2.241-20.301,7.271-25.926s6.381-10.861,10.71-18.768s9.581-2.319,8.166,1.858
					c-1.416,4.178-2.649,7.296-2.649,7.296s14.408-10.893,17.542-16.386c3.135-5.493,6.334-15.774,6.334-15.774
					s8.731,5.635,9.023,10.072s4.228,0.424,6.585,4.262s2.184,5.891,3.764,9.903c1.582,4.013-30.139,39.813-42.035,59.868
					C574.814,537.963,562,501.5,562,501.5z"/>
				<path fill="#FD4631" d="M252.168,537.323c0,0-56.168,17.677-74.168,22.677s-53,31-22,103s65,117,61,192c0,0-44,54-36,126h271
					c0,0-49-99.594-50-151.297s25-161.9,21-188.302S426,551,404,544s-52-6.677-52-6.677l-96-0.002"/>
				<path fill="#EFC6BB" d="M314,405c0,0,5,31,7,42s4,29-7,33c0,0,3,54,54,58c0,0,32.857,51.525-44.143,63S225,546,225,546
					s41-8,46-30s-3-46.086-3-46.086s-19,5.137-18-5.388S262,451,262,451s-29.618-62.713,13-71C311,373,314,405,314,405z"/>
				
					<path fill="none" stroke="#020202" stroke-width="2" stroke-linecap="round" stroke-linejoin="round" stroke-miterlimit="10" d="
					M309.5,442.5c0,0,6.744,10.5,3.372,11s-2.872,0-2.872,0"/>
				
					<path fill="none" stroke="#020202" stroke-width="2" stroke-linecap="round" stroke-linejoin="round" stroke-miterlimit="10" d="
					M299.983,463.5c0,0,5.438,8.075,13.833,0"/>
				
					<path fill="none" stroke="#020202" stroke-width="2" stroke-linecap="round" stroke-linejoin="round" stroke-miterlimit="10" d="
					M623,448.111c0,0,3.5,12.389,0,15.389s-10.517,12-10.517,12"/>
				
					<path fill="none" stroke="#020202" stroke-width="2" stroke-linecap="round" stroke-linejoin="round" stroke-miterlimit="10" d="
					M619.967,446.155c0,0-2.623,13.845-5.045,17.345S605,472.413,605,472.413"/>
				
					<path fill="none" stroke="#020202" stroke-width="2" stroke-linecap="round" stroke-linejoin="round" stroke-miterlimit="10" d="
					M614.922,438.241c0,0-1.422,11.812-5.922,17.786s-10,11.062-10,11.062"/>
				
					<path fill="none" stroke="#020202" stroke-width="2" stroke-linecap="round" stroke-linejoin="round" stroke-miterlimit="10" d="
					M585.498,465.961c0,0,4.852,6.269,3.927,12.904"/>
				<path fill="#020202" d="M312.872,391.65c0,0,0.313,39.443-27.528,42.29c-27.842,2.847-30.908,22.086-30.908,22.086
					l-11.779-23.286L256,378.999C256,378.999,287,355,312.872,391.65z"/>
				<path fill="#8BD6E8" d="M249,537.666c0,0,45.668,69.334,57.668,111.334s34,210.073,37.333,245.703S347.334,951,347.334,951H164
					c0,0,16.368-65.227,28.668-90.667s0-99.334-6.667-128s-30.378-157.354-30.378-157.354s3.047-11.979,20.38-18.646
					S249,537.666,249,537.666z"/>
				<path fill="#8BD6E8" d="M376.007,947.25l69.331-5.581c0,0-30.001-62.666-31-113.999S420.576,680,420.576,680l94.763,61.003
					c0,0,43.333,17.333,51.333-36.667s30-187.999,30-187.999l-44.667-23.334c0,0-21.999,84.001-26.665,94.667
					s-19.999,43.141-18.666,58.57c0,0-76.668-93.904-97.334-103.904s-57.333-11.333-57.333-11.333s-4.679,76.667-4.673,126
					S376.007,947.25,376.007,947.25z"/>
				<path fill="#CBF3F7" d="M403.337,536.048c0,0-7.334,52.286-8.667,68.953s-9.332,23.747-16.666,25.207s7.332,5.271,6.666,16.032
					s-20.821,61.494-32.744,78.127s0,2.633,0,2.633s-10.063-52.002-5.299-118.666S347.334,527,347.334,527
					S382.004,531.096,403.337,536.048z"/>
				<path fill="#CBF3F7" d="M251.479,536.682c0,0,53.194,82.986,61.194,113.652s8.412,74.033,8.412,74.033
					S262.673,670.333,267.34,657s6.667-16.599,6.667-16.599s-24-1.401-32-23.401s-42.884-55.643-44.442-67.154
					S240.285,534.363,251.479,536.682"/>
				<polygon fill="#FFFFFF" points="247.82,691.775 250.62,875.783 400.623,869.418 395.897,684.662 				"/>
				
					<path fill="none" stroke="#020202" stroke-width="2" stroke-linecap="round" stroke-linejoin="round" stroke-miterlimit="10" d="
					M414.5,602.331c0,0,16.5,25.649,13.5,43.909S420.576,680,420.576,680"/>
				<path fill="#EFC6BB" d="M328.197,751.15c0,0,8.42-7.664,15.963-7.873s12.276-2.826,20.995-5.113
					c8.72-2.285,8.268,5.369,4.26,7.211s-7.122,3.088-7.122,3.088s17.814,2.984,23.959,1.488c6.146-1.496,15.814-6.235,15.814-6.235
					s1.903,10.216-1.12,13.477s2.597,3.363,1.429,7.713c-1.17,4.35-2.781,5.633-4.61,9.539c-1.83,3.906-49.636,5.454-72.382,10.589
					S328.197,751.15,328.197,751.15z"/>
				<path fill="#A6E3ED" d="M161.403,563.264c90.075,21.169,38.079,193.881,38.079,193.881c11.629-3.093,24.377-3.12,43.2-4.233
					c18.823-1.112,86.53-10.874,86.53-10.874l5.605,53.313c0,0-164.032,33.872-203.795,33.245
					c-39.764-0.627-11.26-118.004-3.797-159.528C134.689,627.542,146.742,571.013,161.403,563.264"/>
				
					<path fill="none" stroke="#020202" stroke-width="2" stroke-linecap="round" stroke-linejoin="round" stroke-miterlimit="10" d="
					M345.346,531.833c0,0-10.672-11.237,57.991,4.215"/>
				
					<path fill="none" stroke="#020202" stroke-width="2" stroke-linecap="round" stroke-linejoin="round" stroke-miterlimit="10" d="
					M197.564,549.846c0,0-6.025-13.377,50.455-13.611"/>
				
					<path fill="none" stroke="#020202" stroke-width="2" stroke-linecap="round" stroke-linejoin="round" stroke-miterlimit="10" d="
					M374.967,773c0,0,17.352,0.912,24.692-2.044"/>
				
					<path fill="none" stroke="#020202" stroke-width="2" stroke-linecap="round" stroke-linejoin="round" stroke-miterlimit="10" d="
					M368.5,765c0,0,24.594,2.24,33.297-3.38"/>
				
					<path fill="none" stroke="#020202" stroke-width="2" stroke-linecap="round" stroke-linejoin="round" stroke-miterlimit="10" d="
					M368.5,759.16c0,0,16.554-1.479,24.5-1.724s9.613-5.679,9.613-5.679"/>
				
					<path fill="none" stroke="#020202" stroke-width="2" stroke-linecap="round" stroke-linejoin="round" stroke-miterlimit="10" d="
					M303.961,689.167c0,0-0.765-10.317,6.539-10.667s43.023-2,43.023-2s5.59,3.189,5.783,10.095"/>
				
					<circle fill="none" stroke="#020202" stroke-width="2" stroke-linecap="round" stroke-linejoin="round" stroke-miterlimit="10" cx="559.25" cy="508.25" r="3.75"/>
				
					<circle fill="none" stroke="#020202" stroke-width="2" stroke-linecap="round" stroke-linejoin="round" stroke-miterlimit="10" cx="320.423" cy="752.969" r="4.468"/>
				
					<path fill="none" stroke="#020202" stroke-width="2" stroke-linecap="round" stroke-linejoin="round" stroke-miterlimit="10" d="
					M177.5,765c0,0,13.436-6.652,24.236-8.413"/>
			</g>
			<g>
				<polygon fill="#8BD6E8" points="47,135 47,271 201.736,271 205,129 				"/>
				
					<polygon fill="none" stroke="#020202" stroke-width="2" stroke-linecap="round" stroke-linejoin="round" stroke-miterlimit="10" points="
					133,213.54 133,427.307 326.775,407.654 308.323,192.366 				"/>
				<polygon fill="#43B5A5" points="67,178 67,200 121,200.255 121,177 				"/>
				<polygon fill="#43B5A5" points="67,149 67,164 144,164 143.656,149.396 				"/>
				<path fill="#F4EAE9" d="M281.64,328.71c0,4.32-0.6,8.375-1.71,12.345c-5.43,19.33-23.19,33.427-44.25,33.427
					c-25.39,0-45.96-20.351-45.96-45.741c0-25.38,20.57-45.741,45.96-45.741H236C261.23,283,281.64,303.44,281.64,328.71z"/>
				<path fill="#8BD6E8" d="M281.64,328.46c0,4.32-0.6,8.5-1.71,12.47L236,328v-45.5C261.23,282.67,281.64,303.19,281.64,328.46z"/>
				
					<line fill="none" stroke="#020202" stroke-width="2" stroke-linecap="round" stroke-linejoin="round" stroke-miterlimit="10" stroke-dasharray="12" x1="236" y1="328" x2="270.208" y2="298.146"/>
			</g>
		</g>
	</g>
</g>
</svg>
