<?xml version="1.0" encoding="UTF-8"?>
<svg id="Layer_1" xmlns="http://www.w3.org/2000/svg" viewBox="0 0 863.64 295.81">
  <path d="M185.36,158.7c0,63.65-47.22,88.98-92.68,88.98C47.5,247.68,0,222.35,0,158.7s47.5-88.99,92.68-88.99c45.46,0,92.68,25.33,92.68,88.99ZM143.97,158.7c0-29.77-13.99-56.05-51.29-56.05s-51.01,26.28-51.01,56.05c0,29.45,13.7,55.73,51.01,55.73s51.29-26.28,51.29-55.73Z"/>
  <path d="M396.94,158.7c0,57.32-36.72,88.98-81.9,88.98-26.23,0-44.3-9.81-55.66-25.65v73.78h-44.3V74.15h44.3v21.22c11.36-15.83,29.43-25.65,55.66-25.65,45.18-.01,81.9,31.66,81.9,88.98ZM355.55,158.7c0-35.47-18.36-56.05-50.41-56.05-31.77,0-51.3,20.58-51.3,56.05s19.53,55.73,51.3,55.73c32.06,0,50.41-20.27,50.41-55.73Z"/>
  <path d="M596.13,191.95c0,38.63-30.3,55.73-86.55,55.73-54.79,0-88.89-18.68-88.89-56.68h48.08c0,16.78,18.37,24.07,43.72,24.07,25.08,0,38.18-5.07,38.18-18.05,0-15.2-19.23-17.1-60.62-24.7-41.09-7.28-63.23-16.78-63.23-50.35,0-33.88,27.69-52.25,80.14-52.25,54.79,0,82.18,22.17,82.18,53.2h-44.58c0-10.77-11.37-21.54-38.18-21.54-24.18,0-37.3,5.38-37.3,18.37,0,14.57,25.94,16.15,53.63,21.54,43.7,8.23,73.42,11.71,73.42,50.66Z"/>
  <path d="M668.82,27.23c0-17.26-11.65-27.23-27.88-27.23s-27.53,9.96-27.53,27.23v.06c0,17.26,11.3,27.23,27.53,27.23s27.88-9.96,27.88-27.23v-.06Z" fill="#27aae1"/>
  <rect x="619.11" y="74.15" width="44.01" height="168.78"/>
  <path d="M863.64,131.15v111.78h-44.3v-99.75c0-20.27-10.78-37.68-38.17-37.68s-39.64,18.05-39.64,37.68v99.75h-44.3V74.15h44.3v23.75c6.71-10.13,25.65-28.19,58.88-28.19,39.92,0,63.23,23.44,63.23,61.44Z"/>
</svg>